# xmcd
# Track frame offsets:
# 150
# 32642
# 73039
# 118483
# 144407
# 180006
# 206624
#
# Disc length: 3180 seconds
# Revision: 0
# Processed by: cddbd v1.5.2PL0 Copyright (c) Steve Scherf et al.
# Submitted via: VisiTrax 2.10.0.248 - For more info visit www.synapsa.com
#
DISCID=600c6a07
DTITLE=Otis Rush - Live and in Concert from SanFrancisco
DYEAR=2006
DGENRE=Blues
TTITLE0=I Wonder Why
TTITLE1=All Your Love (I Miss Loving)
TTITLE2=It's My Own Fault
TTITLE3=717
TTITLE4=I Can't Quit You Baby
TTITLE5=Feel So Bad
TTITLE6=Got My Mojo Working
EXTD=
EXTT0=
EXTT1=
EXTT2=
EXTT3=
EXTT4=
EXTT5=
EXTT6=
PLAYORDER=
